<?xml version="1.0" encoding="iso-8859-1"?>
<!-- Uploaded to: SVG Repo, www.svgrepo.com, Generator: SVG Repo Mixer Tools -->
<svg fill="#000000" version="1.1" id="Layer_1" xmlns="http://www.w3.org/2000/svg" xmlns:xlink="http://www.w3.org/1999/xlink" 
	 viewBox="0 0 512 512" xml:space="preserve">
<g>
	<g>
		<g>
			<path d="M385.444,355.014h-15.208c0,61.406-49.957,111.363-111.364,111.363v15.208
				C328.664,481.584,385.444,424.805,385.444,355.014z"/>
			<rect x="370.232" y="283.922" width="15.208" height="50.815"/>
			<path d="M454.786,232.021c0-87.844-71.465-159.309-159.309-159.309h-15.218V24.259C280.259,10.882,269.377,0,256,0
				s-24.259,10.882-24.259,24.259v48.453h-15.218c-87.844,0-159.309,71.466-159.309,159.309v29.094H96.14v93.899
				C96.14,441.576,166.564,512,253.127,512h5.746c86.563,0,156.987-70.424,156.987-156.986v-93.899h38.926L454.786,232.021
				L454.786,232.021z M414.914,151.479c9.092,13.439,15.976,28.486,20.131,44.619l-32.376-32.375L414.914,151.479z M154.635,209.028
				l-34.551,34.551l-34.552-34.552l34.552-34.55L154.635,209.028z M130.838,163.722l34.551-34.551l34.551,34.551l-34.551,34.551
				L130.838,163.722z M165.389,219.781l26.125,26.125h-52.25L165.389,219.781z M176.143,209.028l34.551-34.551l34.551,34.551
				l-34.551,34.551L176.143,209.028z M221.448,163.722l34.551-34.551l34.551,34.551l-34.551,34.552L221.448,163.722z
				 M255.999,219.782l26.124,26.124h-52.249L255.999,219.782z M266.753,209.028l34.551-34.551l34.551,34.551l-34.551,34.551
				L266.753,209.028z M312.058,163.722l34.551-34.551l34.551,34.551l-34.551,34.551L312.058,163.722z M346.61,219.782l26.124,26.124
				h-52.248L346.61,219.782z M357.364,209.028l34.551-34.551l34.551,34.551l-34.551,34.551L357.364,209.028z M368.149,107.633
				c14.233,8.346,26.911,19.065,37.493,31.61l-13.727,13.727l-34.551-34.551L368.149,107.633z M353.946,100.328l-7.336,7.336
				l-15.211-15.212C339.188,94.458,346.721,97.107,353.946,100.328z M297.229,87.941c2.853,0.034,5.687,0.148,8.498,0.347
				l30.129,30.129l-34.551,34.551l-34.551-34.551L297.229,87.941z M246.949,24.259c0-4.99,4.06-9.051,9.051-9.051
				c4.99,0,9.051,4.059,9.051,9.051v48.453h-18.102V24.259z M275.744,87.92l-19.745,19.744L236.255,87.92H275.744z M214.769,87.941
				l30.476,30.476l-34.551,34.551l-34.551-34.551l30.129-30.129C209.083,88.089,211.916,87.976,214.769,87.941z M180.6,92.452
				l-15.212,15.212l-7.336-7.336C165.277,97.108,172.81,94.458,180.6,92.452z M143.85,107.633l10.785,10.785l-34.551,34.551
				l-13.726-13.726C116.939,126.698,129.617,115.98,143.85,107.633z M97.086,151.479l12.243,12.243l-32.375,32.375
				C81.11,179.964,87.995,164.918,97.086,151.479z M96.141,245.906H72.422V232.02c0-3.447,0.13-6.865,0.369-10.252l1.987-1.987
				l26.125,26.125H96.141z M400.652,355.014c0,78.177-63.602,141.778-141.779,141.778h-5.746
				c-78.177,0-141.778-63.602-141.778-141.778v-93.899h15.208v83.43h15.208v-83.43h15.208V374.96h15.208V261.114h15.208v53.014
				h15.208v-53.014h198.056V355.014z M415.86,245.906h-4.764l26.124-26.124l1.988,1.988c0.239,3.387,0.369,6.804,0.369,10.25v13.886
				H415.86z"/>
		</g>
	</g>
</g>
</svg>