<?xml version="1.0" encoding="iso-8859-1"?>
<!-- Uploaded to: SVG Repo, www.svgrepo.com, Generator: SVG Repo Mixer Tools -->
<!DOCTYPE svg PUBLIC "-//W3C//DTD SVG 1.1//EN" "http://www.w3.org/Graphics/SVG/1.1/DTD/svg11.dtd">
<svg fill="#000000" height="800px" width="800px" version="1.1" id="Capa_1" xmlns="http://www.w3.org/2000/svg" xmlns:xlink="http://www.w3.org/1999/xlink" 
	 viewBox="0 0 452 452" xml:space="preserve">
<g>
	<path d="M179.829,227.384c0-9.651-7.852-17.502-17.502-17.502s-17.502,7.852-17.502,17.502c0,3.038,2.462,5.5,5.5,5.5
		s5.5-2.462,5.5-5.5c0-3.585,2.917-6.502,6.502-6.502s6.502,2.917,6.502,6.502c0,3.038,2.462,5.5,5.5,5.5
		S179.829,230.421,179.829,227.384z"/>
	<path d="M271.736,227.384c0,3.038,2.463,5.5,5.5,5.5s5.5-2.462,5.5-5.5c0-3.585,2.917-6.502,6.502-6.502s6.502,2.917,6.502,6.502
		c0,3.038,2.463,5.5,5.5,5.5s5.5-2.462,5.5-5.5c0-9.651-7.852-17.502-17.502-17.502S271.736,217.733,271.736,227.384z"/>
	<path d="M422.84,0c-3.037,0-5.5,2.462-5.5,5.5v1.93c0,28.058-22.527,50.937-50.442,51.542
		c16.384-11.295,27.149-30.181,27.149-51.542V5.5c0-3.038-2.463-5.5-5.5-5.5s-5.5,2.462-5.5,5.5v1.93
		c0,28.436-23.134,51.57-51.569,51.57h-1.62c16.406-11.291,27.19-30.192,27.19-51.57V5.5c0-3.038-2.463-5.5-5.5-5.5
		s-5.5,2.462-5.5,5.5v1.93c0,26.963-20.804,49.325-47.201,51.57h-0.697c-23.065,0-41.83,18.765-41.83,41.83v2.336
		c-9.852-1.483-20.11-1.961-30.322-1.961c-10.211,0-20.467,0.478-30.317,1.96v-2.335c0-23.065-18.765-41.83-41.83-41.83h-0.701
		c-26.397-2.245-47.201-24.607-47.201-51.57V5.5c0-3.038-2.462-5.5-5.5-5.5s-5.5,2.462-5.5,5.5v1.93
		c0,21.378,10.783,40.279,27.19,51.57h-1.62c-28.436,0-51.57-23.134-51.57-51.57V5.5c0-3.038-2.462-5.5-5.5-5.5s-5.5,2.462-5.5,5.5
		v1.93c0,21.361,10.766,40.247,27.15,51.541C57.184,58.364,34.66,35.486,34.66,7.43V5.5c0-3.038-2.462-5.5-5.5-5.5
		s-5.5,2.462-5.5,5.5v1.93C23.66,41.931,51.729,70,86.23,70h67.62c17,0,30.83,13.83,30.83,30.83v4.484
		c-5.428,1.33-10.665,3.057-15.626,5.28c-24.524-12.774-56.49-14.313-86.239-4.008c-2.594,0.898-4.128,3.572-3.595,6.265
		c4.637,23.428,21.401,52.745,47.636,64.332c-0.579,5.56-0.882,11.516-0.882,17.901c0,37.416,10.182,72.661,28.67,99.245
		c3.618,5.202,7.473,9.953,11.529,14.242l-5.426,50.27l-3.865,1.909c-10.24,5.057-17.175,15.271-18.098,26.655l-4.755,58.651
		c-0.124,1.531,0.397,3.044,1.439,4.173c1.041,1.129,2.507,1.771,4.043,1.771h17.31h138.36h12.33c2.991,0,5.434-2.39,5.499-5.38
		c0.076-3.527,0.41-34.786-11.329-46.129c-1.893-1.829-4.048-3.096-6.351-3.81l-9.51-88.106c4.057-4.29,7.914-9.042,11.533-14.246
		c18.488-26.583,28.67-61.829,28.67-99.245c0-6.4-0.304-12.37-0.886-17.941c26.183-11.614,42.914-40.891,47.545-64.292
		c0.533-2.693-1.002-5.366-3.596-6.265c-29.73-10.298-61.677-8.767-86.195,3.985c-4.945-2.211-10.163-3.931-15.57-5.256v-4.486
		c0-17,13.83-30.83,30.83-30.83h67.62c34.501,0,62.57-28.069,62.57-62.57V5.5C428.34,2.462,425.877,0,422.84,0z M246.276,113.047
		L230.955,227.08c-1.593-0.272-3.25-0.419-4.958-0.419c-1.708,0-3.365,0.147-4.957,0.419l-15.321-114.033
		c6.419-0.591,13.19-0.842,20.278-0.842C233.086,112.205,239.857,112.456,246.276,113.047z M268.06,276.33
		c0,27.112-18.868,48.87-42.06,48.87c-23.197,0-42.07-21.758-42.07-48.87c0-15.678,6.014-25.001,19.271-29.393
		c1.13,9.414,10.736,16.541,22.796,16.541c12.059,0,21.663-7.125,22.796-16.536C262.047,251.325,268.06,260.647,268.06,276.33z
		 M275.765,317.924l8.449,78.274c-55.625,0.974-101.408-18.213-113.849-23.97l5.862-54.307
		c14.952,12.124,31.982,18.576,49.77,18.576C243.785,336.497,260.814,330.046,275.765,317.924z M237.906,245.069
		c0,3.504-4.891,7.409-11.909,7.409c-7.018,0-11.909-3.904-11.909-7.409c0-3.504,4.891-7.408,11.909-7.408
		C233.016,237.661,237.906,241.565,237.906,245.069z M91.116,115.465c22.848-6.824,46.629-6.122,66.14,1.788
		c-13.737,9.651-24.15,24.854-28.724,48.547C109.851,156.116,96.264,134.722,91.116,115.465z M136.973,195.084
		c0-54.313,22.193-74.524,57.837-80.626l15.71,116.928c-1.307,0.952-2.469,2.028-3.466,3.204
		c-22.646,4.516-34.124,18.548-34.124,41.739c0,11.204,2.717,21.701,7.44,30.693C154.397,284.219,136.973,242.579,136.973,195.084z
		 M301.975,441h-6.795H156.82h-11.346l4.273-52.707c0.536-6.612,4.13-12.629,9.577-16.276l-0.312,2.893
		c-0.251,2.328,0.999,4.535,3.07,5.538c3.684,1.901,53.192,26.794,117.864,26.792c3.517,0,7.085-0.074,10.686-0.229
		c1.3-0.075,2.319,0.342,3.403,1.388C299.406,413.586,301.608,429.373,301.975,441z M271.617,307.03
		c4.724-8.993,7.443-19.493,7.443-30.699c0-23.196-11.473-37.225-34.11-41.73c-1-1.18-2.164-2.259-3.474-3.213l15.71-116.928
		c35.643,6.102,57.836,26.313,57.836,80.626C315.022,242.583,297.594,284.226,271.617,307.03z M360.783,115.465
		c-5.139,19.228-18.693,40.584-37.33,50.289c-4.583-23.686-15.005-38.882-28.75-48.525
		C314.204,109.341,337.959,108.647,360.783,115.465z"/>
	<path d="M229.886,285.946c-2.146-2.147-5.629-2.146-7.778,0c-5.46,5.461-14.346,5.461-19.806,0c-2.148-2.147-5.63-2.147-7.778,0
		c-2.148,2.148-2.148,5.63,0,7.778c4.875,4.875,11.278,7.312,17.681,7.312c4.814,0,9.627-1.379,13.792-4.134
		c4.165,2.755,8.978,4.134,13.792,4.134c6.403,0,12.807-2.438,17.681-7.312c2.148-2.148,2.148-5.63,0-7.778
		c-2.146-2.147-5.631-2.147-7.777,0C244.232,291.407,235.347,291.407,229.886,285.946z"/>
</g>
</svg>