<?xml version="1.0" encoding="iso-8859-1"?>
<!-- Uploaded to: SVG Repo, www.svgrepo.com, Generator: SVG Repo Mixer Tools -->
<svg fill="#000000" height="800px" width="800px" version="1.1" id="Layer_1" xmlns="http://www.w3.org/2000/svg" xmlns:xlink="http://www.w3.org/1999/xlink" 
	 viewBox="0 0 512 512" xml:space="preserve">
<g>
	<g>
		<path d="M510.073,147.966c-4.694-13.452-15.88-24.154-29.925-28.625l-13.24-4.217c-0.959-1.67-1.905-3.585-2.827-5.724
			c-12.788-29.666-31.343-54.893-53.657-72.958c-24.422-19.769-53.372-30.817-83.72-31.95c-3.345-0.125-6.629-0.189-9.757-0.189
			c-60.491,0-117.907,19.263-164.697,54.755c-23.352-12.809-49.601-20.23-74.462-20.98c-29.253-0.881-54.921,7.26-74.177,23.552
			c-2.41,2.04-3.74,5.08-3.602,8.234c0.139,3.155,1.73,6.067,4.31,7.886c27.266,19.232,52.852,40.871,76.13,64.37
			c-20.21,37.095-30.938,78.834-30.938,122.371c0,30.476,2.156,86.67,15.975,133.331c-38.504,18.201-63.779,56.214-65.241,99.328
			c-0.094,2.763,0.938,5.447,2.861,7.435c1.922,1.988,4.568,3.111,7.333,3.111h75.525c5.145,0,9.485-3.831,10.121-8.937
			c1.152-9.227,9.043-16.184,18.357-16.184c9.313,0,17.205,6.958,18.357,16.185c0.637,5.105,4.976,8.936,10.121,8.936h75.525
			c2.765,0,5.412-1.123,7.333-3.111c1.923-1.988,2.954-4.671,2.861-7.435c-0.832-24.556-9.335-47.709-24.589-66.957
			c-13.57-17.122-31.35-29.789-51.73-36.924c-0.601-6.093-0.887-12.232-0.856-18.321c0.484-91.939,70.717-185.244,204.014-185.689
			c26.932-0.094,49.98,0.923,76.684,2.095l10.154,0.444c1.387,0.06,2.823,0.131,4.294,0.204
			c17.568,0.869,41.635,2.059,55.739-12.046C511.642,170.669,514.24,159.905,510.073,147.966z M27.799,69.567
			c28.42-16.032,69.529-14.745,107.366,3.612c-2.255,2.026-4.491,4.077-6.685,6.186c-14.234,13.682-26.675,28.677-37.222,44.719
			C71.532,104.527,50.266,86.252,27.799,69.567z M487.928,165.535c-7.707,7.707-26.548,6.775-40.308,6.095
			c-1.515-0.074-2.993-0.148-4.421-0.21l-10.139-0.443c-26.961-1.184-50.244-2.211-77.646-2.115
			c-87.156,0.292-139.65,36.344-168.339,66.538c-35.322,37.176-55.737,88-56.007,139.441c-0.048,9.161,0.552,18.422,1.783,27.523
			c0.545,4.019,3.418,7.334,7.318,8.443c35.907,10.213,61.836,40.246,67.139,76.488h-56.48
			c-5.611-14.801-19.945-25.121-36.384-25.121c-16.44,0-30.774,10.32-36.385,25.121H21.581c4.921-33.587,27.612-62.038,60.009-74.15
			c5.164-1.931,7.86-7.617,6.085-12.837C72.22,354.862,69.912,295.708,69.912,264.492c0-132.221,110.818-239.791,247.032-239.791
			c2.875,0,5.903,0.059,8.996,0.174c50.587,1.888,95.224,36.504,119.405,92.599c2.031,4.711,4.26,8.795,6.625,12.138
			c1.281,1.811,3.118,3.157,5.232,3.829l16.755,5.335c7.963,2.536,14.262,8.483,16.854,15.909
			C492.208,158.686,492.133,161.33,487.928,165.535z"/>
	</g>
</g>
<g>
	<g>
		<path d="M374.379,75.661c-8.033,0-14.568,6.535-14.568,14.568c0,8.033,6.535,14.568,14.568,14.568
			c8.033,0,14.568-6.535,14.568-14.568C388.947,82.196,382.412,75.661,374.379,75.661z"/>
	</g>
</g>
<g>
	<g>
		<path d="M277.175,52.482c-1.25-5.492-6.712-8.933-12.209-7.681c-6.441,1.467-12.892,3.218-19.172,5.205
			c-5.371,1.7-8.347,7.432-6.648,12.802c1.376,4.347,5.393,7.124,9.721,7.124c1.019,0,2.057-0.154,3.08-0.477
			c5.747-1.819,11.651-3.421,17.546-4.763C274.986,63.441,278.426,57.975,277.175,52.482z"/>
	</g>
</g>
<g>
	<g>
		<path d="M220.151,70.75c-2.632-4.979-8.799-6.885-13.784-4.253c-28.756,15.193-53.485,35.635-73.498,60.752
			c-3.51,4.405-2.783,10.823,1.622,14.334c1.878,1.496,4.122,2.223,6.349,2.223c2.999,0,5.971-1.317,7.984-3.844
			c18.25-22.906,40.817-41.554,67.073-55.427C220.878,81.902,222.783,75.731,220.151,70.75z"/>
	</g>
</g>
</svg>