<svg xmlns="http://www.w3.org/2000/svg" viewBox="0 0 100 100">
  <!-- Body (round) -->
  <circle cx="50" cy="55" r="20" fill="none" stroke="black" stroke-width="2"/>
  <!-- Head -->
  <circle cx="50" cy="32" r="10" fill="none" stroke="black" stroke-width="2"/>
  <!-- Spikes on back -->
  <path d="M 35 48 L 32 42 L 35 45" fill="none" stroke="black" stroke-width="2"/>
  <path d="M 40 45 L 38 38 L 40 42" fill="none" stroke="black" stroke-width="2"/>
  <path d="M 45 43 L 44 36 L 45 40" fill="none" stroke="black" stroke-width="2"/>
  <path d="M 50 42 L 50 35 L 50 39" fill="none" stroke="black" stroke-width="2"/>
  <path d="M 55 43 L 56 36 L 55 40" fill="none" stroke="black" stroke-width="2"/>
  <path d="M 60 45 L 62 38 L 60 42" fill="none" stroke="black" stroke-width="2"/>
  <path d="M 65 48 L 68 42 L 65 45" fill="none" stroke="black" stroke-width="2"/>
  <!-- Eyes -->
  <circle cx="46" cy="31" r="2" fill="black"/>
  <circle cx="54" cy="31" r="2" fill="black"/>
  <!-- Nose -->
  <circle cx="50" cy="36" r="1.5" fill="black"/>
  <!-- Feet -->
  <ellipse cx="43" cy="73" rx="4" ry="5" fill="none" stroke="black" stroke-width="2"/>
  <ellipse cx="57" cy="73" rx="4" ry="5" fill="none" stroke="black" stroke-width="2"/>
</svg>
