<svg xmlns="http://www.w3.org/2000/svg" viewBox="0 0 100 100">
  <!-- Body -->
  <ellipse cx="50" cy="60" rx="18" ry="24" fill="none" stroke="black" stroke-width="2"/>
  <!-- Head (large) -->
  <circle cx="50" cy="35" r="16" fill="none" stroke="black" stroke-width="2"/>
  <!-- Large eyes -->
  <circle cx="44" cy="33" r="5" fill="none" stroke="black" stroke-width="2"/>
  <circle cx="56" cy="33" r="5" fill="none" stroke="black" stroke-width="2"/>
  <circle cx="44" cy="33" r="2" fill="black"/>
  <circle cx="56" cy="33" r="2" fill="black"/>
  <!-- Small pointed ears -->
  <path d="M 38 23 L 35 15 L 40 20 Z" fill="none" stroke="black" stroke-width="2"/>
  <path d="M 62 23 L 65 15 L 60 20 Z" fill="none" stroke="black" stroke-width="2"/>
  <!-- Beak -->
  <path d="M 50 40 L 48 44 L 52 44 Z" fill="none" stroke="black" stroke-width="2"/>
  <!-- Wings -->
  <ellipse cx="34" cy="58" rx="8" ry="14" fill="none" stroke="black" stroke-width="2"/>
  <ellipse cx="66" cy="58" rx="8" ry="14" fill="none" stroke="black" stroke-width="2"/>
  <!-- Feet -->
  <path d="M 46 82 L 44 88 M 46 82 L 48 88" stroke="black" stroke-width="2" fill="none"/>
  <path d="M 54 82 L 52 88 M 54 82 L 56 88" stroke="black" stroke-width="2" fill="none"/>
</svg>
