<?xml version="1.0" encoding="iso-8859-1"?>
<!-- Uploaded to: SVG Repo, www.svgrepo.com, Generator: SVG Repo Mixer Tools -->
<!DOCTYPE svg PUBLIC "-//W3C//DTD SVG 1.1//EN" "http://www.w3.org/Graphics/SVG/1.1/DTD/svg11.dtd">
<svg fill="#000000" height="800px" width="800px" version="1.1" id="Capa_1" xmlns="http://www.w3.org/2000/svg" xmlns:xlink="http://www.w3.org/1999/xlink" 
	 viewBox="0 0 199.67 199.67" xml:space="preserve">
<path d="M132.634,177.391c-0.904,0-1.786-0.016-2.625-0.031c-0.76-0.014-1.489-0.026-2.172-0.026c-5.271,0-18.394-2.254-21.553-2.81
	c-4.22,2.117-9.162,2.04-13.329-0.226c-0.119,0.047-0.245,0.082-0.375,0.106c-0.665,0.119-16.338,2.929-22.225,2.929
	c-0.682,0-1.412,0.013-2.172,0.026c-6.008,0.109-14.238,0.254-17.436-5.621c-2.883-5.296-3.566-20.022-3.693-23.687
	c-6.165-2.432-11.727-3.583-16.815-4.637c-7.651-1.585-14.259-2.953-19.95-8.074c-5.9-5.31-9.929-15.989-10.265-27.207
	c-0.382-12.778,3.441-32.353,23.83-53.04l0,0c33.1-33.585,73.398-32.88,75.98-32.8c2.585-0.087,42.878-0.79,75.981,32.8
	c20.388,20.688,24.211,40.262,23.828,53.04c-0.336,11.218-4.365,21.897-10.265,27.207c-5.69,5.121-12.299,6.49-19.949,8.074
	c-5.498,1.139-11.549,2.392-18.314,5.249c-0.177,4.465-0.929,18.037-3.671,23.074C144.694,176.793,138.217,177.391,132.634,177.391z
	 M111.543,171.355c5.166,0.842,12.793,1.979,16.294,1.979c0.705,0,1.458,0.014,2.243,0.027c5.265,0.089,11.814,0.21,13.852-3.534
	c1.856-3.41,2.755-13.204,3.089-19.269c-0.922,0.464-1.855,0.96-2.803,1.492C132.729,158.5,119.986,166.184,111.543,171.355z
	 M51.134,149.819c0.3,5.976,1.194,16.458,3.126,20.008c2.038,3.745,8.592,3.627,13.851,3.534c0.786-0.014,1.539-0.027,2.244-0.027
	c3.775,0,12.347-1.322,17.459-2.17c-8.443-5.168-21.014-12.743-32.362-19.113C53.982,151.224,52.543,150.485,51.134,149.819z
	 M99.17,26.287c-5.129,0-42.392,1.098-72.466,31.615l0,0C7.307,77.582,3.664,96.016,4.023,108.015
	c0.37,12.368,5.049,20.849,8.942,24.354c4.886,4.396,10.71,5.603,18.085,7.13c7.587,1.571,16.186,3.352,26.36,9.063
	c13.629,7.651,28.996,17.021,36.943,21.925c3.381,2.088,7.583,2.088,10.963,0c7.947-4.904,23.313-14.273,36.942-21.925
	c10.175-5.712,18.773-7.492,26.36-9.063c7.374-1.527,13.199-2.733,18.085-7.13c3.894-3.505,8.572-11.985,8.942-24.354
	c0.359-11.999-3.284-30.433-22.68-50.112c-32.264-32.737-72.65-31.621-73.058-31.608c-0.05,0.002-0.1,0.002-0.147,0
	C99.735,26.293,99.533,26.287,99.17,26.287z M102.285,166.307L102.285,166.307L102.285,166.307c-0.329,0-0.657-0.08-0.954-0.242
	c-0.001,0-0.003-0.002-0.004-0.002c-0.133-0.072-0.26-0.161-0.376-0.266c-0.016-0.015-0.031-0.028-0.046-0.043
	c-0.226-0.215-22.724-21.549-42.1-29.706c-19.374-8.157-35.594-9.289-35.756-9.299c-1.102-0.071-1.938-1.022-1.867-2.124
	c0.071-1.103,1.028-1.924,2.123-1.868c0.686,0.044,17.019,1.17,37.052,9.604c12.809,5.394,26.537,15.971,35.03,23.145
	c-5.593-9.096-15.854-23.011-30.968-32.931c-24.287-15.938-45.087-18.212-45.294-18.233c-1.099-0.111-1.899-1.093-1.787-2.191
	c0.112-1.1,1.096-1.912,2.192-1.787c0.886,0.09,21.987,2.398,47.083,18.868c15.484,10.162,25.918,24.012,31.773,33.431
	c-2.63-11.382-8.773-29.431-22.884-45.489c-22.681-25.812-41.928-32.614-42.12-32.681c-1.044-0.357-1.602-1.493-1.246-2.537
	c0.356-1.045,1.491-1.604,2.534-1.249c0.821,0.278,20.378,7.13,43.837,33.826c14.69,16.719,21.051,35.138,23.776,46.953
	c2.726-11.815,9.086-30.234,23.776-46.953c23.459-26.696,43.016-33.548,43.837-33.826c1.049-0.354,2.182,0.205,2.536,1.251
	c0.355,1.046-0.205,2.182-1.251,2.536c-0.325,0.113-19.517,6.96-42.118,32.68c-14.11,16.059-20.253,34.107-22.883,45.489
	c5.854-9.419,16.289-23.269,31.772-33.431c25.097-16.47,46.198-18.778,47.085-18.868c1.092-0.126,2.078,0.688,2.19,1.785
	c0.113,1.098-0.686,2.08-1.784,2.193c-0.208,0.021-21.07,2.336-45.296,18.233c-15.142,9.938-25.396,23.852-30.98,32.941
	c8.492-7.174,22.227-17.759,35.042-23.155c20.033-8.434,36.367-9.56,37.052-9.604c1.121-0.056,2.053,0.766,2.123,1.868
	c0.071,1.102-0.765,2.053-1.866,2.124c-0.162,0.01-16.383,1.142-35.756,9.299c-19.376,8.157-41.874,29.491-42.1,29.706
	c-0.008,0.008-0.017,0.017-0.025,0.024c-0.126,0.115-0.263,0.213-0.407,0.29c-0.001,0.001-0.001,0.001-0.001,0.001
	c-0.001,0-0.003,0.003-0.007,0.003c0,0.001-0.001,0.001-0.001,0.001C102.931,166.23,102.608,166.307,102.285,166.307z
	 M102.288,131.567c-0.08,0-0.16-0.005-0.241-0.015c-1.097-0.132-1.879-1.127-1.747-2.224c0.152-1.274,3.907-31.451,18.206-51.587
	c11.237-15.821,26.041-27.252,26.666-27.73c0.878-0.673,2.132-0.506,2.804,0.37s0.507,2.132-0.37,2.804
	c-0.148,0.114-14.962,11.559-25.838,26.873c-13.702,19.294-17.46,49.445-17.497,49.747
	C104.149,130.82,103.285,131.567,102.288,131.567z"/>
</svg>