<?xml version="1.0"?>
<svg xmlns:rdf="http://www.w3.org/1999/02/22-rdf-syntax-ns#" xmlns="http://www.w3.org/2000/svg" xmlns:cc="http://web.resource.org/cc/" xmlns:dc="http://purl.org/dc/elements/1.1/" xmlns:sodipodi="http://inkscape.sourceforge.net/DTD/sodipodi-0.dtd" xmlns:svg="http://www.w3.org/2000/svg" id="Layer_1" style="enable-background:new 0 0 412.656 370.803" space="preserve" sodipodi:version="0.32" viewBox="0 0 412.656 370.803" version="1.1" sodipodi:docname="calzettoni.svg" sodipodi:docbase="F:\openclip\wmf\01">
  <sodipodi:namedview id="base" bordercolor="#666666" borderopacity="1.0" pagecolor="#ffffff"/>
  <g id="g3">
    <path id="path5" d="m395.83 2.959c19.547 11.467 15.479 38.916 13.233 53.864-1.955 13 0.489 12.372 2.88 25.919 3.064 17.38-10.149 13.615-15.958 23.896-10.146 17.96 6.804 51.593 12.299 69.431 5.822 18.903 6.838 38.281-3.269 54.019-13.476 20.984-35.763 39.144-51.763 58.845-12.15 14.962-21.533 32.082-31.68 46.702-20.766 29.919-58.214 44.971-92.859 28.178-46.535-22.56-7.989-80.731 10.26-104.97 18.224-24.208 36.156-56.721 38.468-89.853 1.01-14.484 0.123-29.054 1.369-43.516 1.069-12.4-6.773-7.218-14.681-13.149-9.006-6.757-4.966-13.577-4.825-21.872 0.34-20.234-12.158-47.152 0.312-66.161 14.799-22.56 69.88-24.357 95.271-24.285 13.55 0.028 27.97 1.928 40.95 2.947"/>
    <path id="path7" fill="#fff" d="m396.77 13.545c10.972 21.032-0.995 35.747 0.935 56.666 0.51 5.524 7.401 13.788 5.761 19.459-3.677 12.711-34.628 14.628-46.236 15.412-22.832 1.54-54.612 8.304-76.902 3.891-18.65-3.691-11.854-11.268-11.987-26.153-0.128-14.249-9.401-29.061-7.473-42.965 4.184-30.146 59.543-30.02 83.44-30.589 15.7-0.373 38.43-4.453 52.47 4.282"/>
    <path id="path9" d="m393.81 17.281c0.898 27.902-46.239 12.831-59.623 21.483-11.737 7.588 2.796 39.973 2.802 54.642-9.672-10.29-1.365-62.427-25.843-53.085-9.246 3.528-3.919 12.808-1.867 23.974 1.927 10.479 4.782 20.709 5.292 31.446-9.93-11.129-8.423-39.68-12.766-53.863-9.992 0.224-33.662 0.735-29.578-14.167 3.083-11.244 27.951-8.112 6.384 3.736 17.788 8.976 46.948 0.593 66.628-1.557 14.443-1.578 26.766 0.014 39.542-8.25-17.4 1.205-1.4-17.459 9.04-4.359"/>
    <path id="path11" d="m344.46 28.49c-11.38-10.485 0.17-21.128 0 0"/>
    <path id="path13" d="m173.38 27.711c5.805 12.11-1.607 28.435 1.868 42.344 2.975 11.904 11.815 24.413 7.783 36.895-2.885 8.933-14.589 11.327-17.435 19.382-2.982 8.441 7.195 23.11 9.496 31.368 5.178 18.577 5.54 41.023 3.424 60.089-1.983 17.869-14.489 25.514-26.309 36.585-17.819 16.688-28.447 35.832-39.385 54.951-13.113 22.919-29.994 51.835-64.605 56.51-22.078 2.98-50.195-23.64-48.105-44.53 2.958-29.547 11.138-39.965 25.687-64.294 12.552-20.992 19.127-39.114 22.65-63.749 1.949-13.63 6.196-25.901 6.149-40.553-0.082-26.087-6.638-11.578-19.303-23.974-11.539-11.293-0.787-45.348-1.401-60.089-1.153-27.702-7.591-46.43 27.865-47.48 23.06-0.683 46.724-3.27 69.742-3.27 11.533 0 25.489-6.104 35.806 1.868 2.75 2.122 4.74 4.735 6.07 7.932"/>
    <path id="path15" d="m361.58 21.64c-5.48 0.863-8.51-9.714 0 0"/>
    <path id="path17" d="m313.01 29.112c-2.313-4.703-3.907-7.858-1.399-11.831 3.63 4.639 2.72 7.64 1.4 11.831"/>
    <path id="path19" d="m326.56 18.683c0.692 3.341 2.254 4.715 0.623 7.472-4.74-5.25-2.25-5.641-0.62-7.472"/>
    <path id="path21" fill="#fff" d="m165.9 32.226c2.057 7.816-2.496 19.376-1.556 28.645 1.261 12.446 6.893 23.445 10.196 35.337 5.866 21.119-47.793 23.869-63.437 23.507-17.334-0.4-31.611-1.94-48.415 4.359-23.051 8.641-22.882-8.753-21.95-25.687 0.937-16.991-9.347-60.512 7.473-68.34 13.887-6.463 45.852-0.185 61.804-1.557 13.57-1.173 49-12.55 55.89 3.73"/>
    <path id="path23" d="m157.65 35.184c-4.55 9.152-18.144 11.639-27.555 13.232-10.61 1.796-23.032 2.129-33.781 2.491-11.901 0.399-29.341 3.449-41.02 0.778-13.923-3.184-15.579-17.937-4.281-16.501-2.486-0.316-1.114 7.358 4.359 9.029 9.35 2.855 10.814-3.296 11.831-9.029-1.797 15.686 21.785 11.08 17.125-3.737h3.114c-6.205 20.343 21.609 9.149 31.29 8.874-0.873-2.216-1.145-6.14-2.181-8.874h2.181c1.001 13.746 14.385 10.785 23.974 5.916 5.81-2.95 15.75-16.754 14.94-2.179"/>
    <path id="path25" d="m134.46 30.669c-0.161 3.623 2.008 5.176-1.557 6.694-1.28-3.472 1.58-7.055 1.56-6.694"/>
    <path id="path27" d="m353.33 48.571c3.396 7.826 5.775 29.281 5.291 40.32-3.66-3.672-6.375-14.202-7.316-21.25-1.342-10.067-3.804-18.003-5.447-27.943 2.05 2.113 5.71 5.846 7.48 8.873"/>
    <path id="path29" d="m373.57 42.5c4.406 5.944 9.063 40.101 6.693 45.769-6.394-15.559-5.865-32.377-10.43-47.948 1.8 0.23 2.49 1.426 3.74 2.179"/>
    <path id="path31" d="m284.68 50.128c-2.688 7.663 3.062 21.877 4.203 30.513 0.84 6.352 1.358 12.532 2.492 18.836-8.086-5.325-4.161-13.506-5.449-22.106-1.933-12.913-5.231-20.46-4.203-33.936 4.03 1.185 2.56 3.147 2.96 6.693"/>
    <path id="path33" d="m393.03 55.266c2.028 5.31 1.898 10.875-1.556 14.322-0.985-7.347-0.059-14.702-2.181-21.794 3.01 1.469 2.76 3.893 3.74 7.472"/>
    <path id="path35" d="m50.704 53.865c2.672 15.475 9.305 40.941 3.114 55.264-3.851-6.139 0.88-10.283 0.311-18.214-0.891-12.431-11.857-26.338-3.425-37.051"/>
    <path id="path37" d="m96.316 65.073c-0.717 9.425-0.049 19.633 3.27 28.488 1.231 3.287 6.694 21.39 0 13.233-9.988-12.172-2.138-37.329-9.963-50.75 4.427 1.396 4.916 4.533 6.693 9.033"/>
    <path id="path39" d="m76.858 92.627c1.611 4.639 2.385 9.593 3.736 14.322-7.727-0.639-13.548-42.145-9.652-49.348 3.484 11.454 2.981 23.482 5.916 35.025"/>
    <path id="path41" d="m123.09 67.876c2.019 11.173 4.867 28.42 4.67 36.738-12.398-8.092-4.82-31.91-9.029-44.834 5.93 0.663 3.95 3.663 4.36 8.1"/>
    <path id="path43" d="m147.22 70.989c2.088 7.832 5.784 25.024 2.958 31.446-5.694-12.086-5.766-28.223-9.028-42.655 3.59 3.194 4.62 6.676 6.07 11.204"/>
    <path id="path45" fill="#fff" d="m387.74 138.24c2.6 7.464 5.435 17.039 7.474 25.375-23.228 1.7-37.462 28.39-34.093 49.814 2.016 12.823 21.212 28.171 14.011 36.274-24.729 27.823-40.611 65.425-66.628 88.888-10.865-34.402-53.337-46.17-85.154-44.211 18.979-35.336 48.343-61.494 58.066-107.65 2.482-11.782 4.894-24.386 4.124-37.362-0.17-2.894-1.254-17.932 0.391-22.963 3.181-9.732 0.73-8.501 14.825-9.49 12.202-0.856 24.41-1.677 36.616-2.491 14.736-0.982 37.121 0.093 48.968-5.298 1.55 9.17 1.12 19.53 1.39 29.11"/>
    <path id="path47" fill="#fff" d="m157.65 121.89c1.722 13.463 5.608 25.668 9.029 36.739 5.081 16.448-0.802 13.447-16.423 20.394-35.023 15.574-22.503 52.382-6.771 72.855-25.285 15.938-26.787 52.173-48.571 70.987-19.366-25.025-48.111-36.57-80.017-35.184 9.315-19.483 23.59-34.527 33.314-56.82 7.047-16.156 9.286-34.101 11.987-50.75 0.854-5.261 1.258-14.452 1.868-21.172 1.561-17.195-8.161-24.479 11.052-30.2 15.104-4.497 32.907 0.452 48.26-0.155 12.58-0.51 23.7-5.85 36.27-6.71"/>
    <path id="path49" fill="#fff" d="m405.02 193.5c0.295 16.012-4.823 37.393-23.195 48.57-9.084-13.574-18.254-28.068-12.921-47.948 2.324-8.667 5.674-19.479 15.566-22.882 16.71-5.75 15.63 9.52 20.55 22.26"/>
    <path id="path51" fill="#fff" d="m171.04 186.03c0.866 26.009-1.692 45.02-23.194 62.115-9.992-11.333-23.475-33.652-11.909-48.261 3.4-4.29 37.58-35.29 35.1-13.85"/>
    <path id="path53" fill="#fff" d="m34.358 293.76c15.569 3.383 53.806 12.062 56.199 31.134 2.298 18.311-39.711 36.155-56.666 30.356-26.817-9.17-41.49-76.89 0.467-61.49"/>
    <path id="path55" fill="#fff" d="m299.47 330.34c22.001 29.744-68.79 47.377-80.405 12.533-3.157-9.472-7.828-35.702 1.169-42.576 20.65-15.77 67.75 13.56 79.24 30.05"/>
  </g>
  <metadata>
    <rdf:RDF>
      <cc:Work>
        <dc:format>image/svg+xml</dc:format>
        <dc:type rdf:resource="http://purl.org/dc/dcmitype/StillImage"/>
        <cc:license rdf:resource="http://creativecommons.org/licenses/publicdomain/"/>
        <dc:publisher>
          <cc:Agent rdf:about="http://openclipart.org/">
            <dc:title>Openclipart</dc:title>
          </cc:Agent>
        </dc:publisher>
        <dc:title>Architetto -- Calzettoni</dc:title>
        <dc:date>2009-04-25T20:34:57</dc:date>
        <dc:description>Pair of socks by Francesco 'Architetto' Rollandin.</dc:description>
        <dc:source>http://openclipart.org/detail/25294/architetto----calzettoni-by-anonymous-25294</dc:source>
        <dc:creator>
          <cc:Agent>
            <dc:title>Anonymous</dc:title>
          </cc:Agent>
        </dc:creator>
        <dc:subject>
          <rdf:Bag>
            <rdf:li>black and white</rdf:li>
            <rdf:li>clip art</rdf:li>
            <rdf:li>clipart</rdf:li>
            <rdf:li>clothing</rdf:li>
            <rdf:li>image</rdf:li>
            <rdf:li>line art</rdf:li>
            <rdf:li>media</rdf:li>
            <rdf:li>outline</rdf:li>
            <rdf:li>png</rdf:li>
            <rdf:li>public domain</rdf:li>
            <rdf:li>socks</rdf:li>
            <rdf:li>svg</rdf:li>
          </rdf:Bag>
        </dc:subject>
      </cc:Work>
      <cc:License rdf:about="http://creativecommons.org/licenses/publicdomain/">
        <cc:permits rdf:resource="http://creativecommons.org/ns#Reproduction"/>
        <cc:permits rdf:resource="http://creativecommons.org/ns#Distribution"/>
        <cc:permits rdf:resource="http://creativecommons.org/ns#DerivativeWorks"/>
      </cc:License>
    </rdf:RDF>
  </metadata>
</svg>
