<?xml version="1.0" encoding="iso-8859-1"?>
<!-- Uploaded to: SVG Repo, www.svgrepo.com, Generator: SVG Repo Mixer Tools -->
<svg fill="#000000" height="800px" width="800px" version="1.1" id="Layer_1" xmlns="http://www.w3.org/2000/svg" xmlns:xlink="http://www.w3.org/1999/xlink" 
	 viewBox="0 0 512 512" xml:space="preserve">
<g>
	<g>
		<path d="M510.045,280.149l-87.503-123.107c3.039-3.291,5.964-6.719,8.71-10.284c33.174-43.05,11.982-112.572,11.064-115.512
			c-1.326-4.24-5.164-7.198-9.601-7.401c-3.074-0.137-75.711-2.946-108.886,40.104c-2.599,3.371-5.034,6.86-7.325,10.414
			c-19.759-5.964-40.508-9.097-60.505-9.097c-19.999,0-40.748,3.133-60.506,9.097c-2.291-3.555-4.726-7.044-7.323-10.413
			C154.995,20.902,82.355,23.702,79.284,23.847c-4.439,0.202-8.276,3.161-9.601,7.401c-0.918,2.939-22.111,72.461,11.071,115.52
			c2.767,3.582,5.688,7.004,8.706,10.271L1.954,280.149c-2.16,3.039-2.559,6.991-1.048,10.401c1.511,3.409,4.707,5.769,8.409,6.209
			l31.083,3.7c-5.875,20.643-9.141,35.279-10.902,44.386c-2.307,11.927-2.676,17.514-2.71,18.111
			c-0.233,4.05,1.873,7.875,5.419,9.843c3.546,1.968,7.906,1.733,11.22-0.606l11.216-7.919c-3.416,16.953-5.757,38.802-1.563,58.682
			c0.604,2.868,2.374,5.355,4.884,6.867c1.662,1.001,3.549,1.517,5.454,1.517c0.971,0,1.947-0.134,2.9-0.406
			c1.668-0.476,36.863-10.57,56.691-19.848c6.26,4.351,13.658,7.584,22.068,9.673v1.781c0,36.224,29.471,65.694,65.695,65.694
			h45.223c0.003,0,0.006,0,0.011,0c0.004,0,0.006,0,0.011,0h45.224c36.224,0,65.694-29.471,65.694-65.694v-1.764
			c8.517-2.104,15.829-5.307,22.076-9.675c7.608,3.572,18.299,7.642,31.923,12.151c13.237,4.38,24.288,7.548,24.753,7.681
			c0.953,0.274,1.931,0.408,2.905,0.408c1.903,0,3.789-0.513,5.451-1.515c2.511-1.514,4.28-4,4.886-6.87
			c4.193-19.879,1.852-41.73-1.563-58.682l11.217,7.919c3.316,2.342,7.68,2.576,11.225,0.603c3.546-1.971,5.652-5.8,5.413-9.852
			c-0.048-0.816-1.238-19.024-13.611-62.485l31.083-3.7c3.703-0.441,6.898-2.8,8.41-6.209
			C512.604,287.14,512.206,283.188,510.045,280.149z M340.563,76.849c20.963-27.203,65.62-31.337,83.529-31.871
			c4.067,17.444,11.462,61.588-9.575,88.887c-1.12,1.454-2.28,2.875-3.458,4.279c-10.366-14.521-24.262-27.643-40.734-38.637
			c12.986-16.781,25.71-22.261,28.947-21.774c4.605,3.313,11.042,2.395,14.531-2.135c3.56-4.623,2.699-11.255-1.924-14.815
			c-15.821-12.186-41.372,3.859-58.414,25.986c-0.497,0.641-0.981,1.293-1.464,1.946c-4.846-2.507-9.85-4.843-14.996-6.995
			C338.155,80.075,339.332,78.444,340.563,76.849z M87.925,44.965c17.908,0.506,62.479,4.591,83.513,31.885
			c1.23,1.594,2.405,3.225,3.557,4.871c-5.147,2.152-10.151,4.489-14.997,6.995c-0.477-0.645-0.956-1.29-1.446-1.923
			c-17.059-22.15-42.609-38.198-58.432-26.009c-4.622,3.56-5.484,10.192-1.924,14.815c3.487,4.528,9.926,5.448,14.531,2.135
			c3.24-0.504,15.95,4.989,28.947,21.773c-16.474,10.994-30.372,24.115-40.736,38.629c-1.175-1.398-2.332-2.817-3.456-4.273
			C76.519,106.66,83.883,62.42,87.925,44.965z M301.233,467.109H256.01c-0.003,0-0.006,0-0.011,0c-0.004,0-0.006,0-0.01,0h-45.223
			c-24.194,0-43.933-19.381-44.54-43.432c3.015,0.15,6.204,0.227,9.658,0.227c0.855,0,1.706-0.105,2.535-0.308l25.395-6.278v21.809
			c0,5.833,4.729,10.564,10.564,10.564c5.834,0,10.564-4.73,10.564-10.564v-27.031L256,404.416l31.057,7.679v27.031
			c0,5.833,4.73,10.564,10.564,10.564s10.564-4.73,10.564-10.564v-21.809l25.394,6.278c0.829,0.204,1.682,0.308,2.535,0.308
			c3.453,0,6.642-0.077,9.658-0.227C345.165,447.727,325.427,467.109,301.233,467.109z M235.938,308.084
			c0-3.955,0.818-4.271,1.949-4.707c3.551-1.371,10.544-1.372,17.312-1.367h1.6c6.784,0,13.76-0.003,17.312,1.367
			c1.131,0.436,1.949,0.752,1.949,4.707c0,5.156-9.856,13.387-20.052,18.847C246.555,321.827,235.938,313.483,235.938,308.084z
			 M416.927,269.094c-5.833,0-10.564,4.73-10.564,10.564s4.73,10.564,10.564,10.564h30.549c-0.166,1.417-0.057,2.868,0.363,4.267
			c5.92,19.695,9.708,34.763,12.124,45.764l-14.412-10.174c-3.785-2.672-8.863-2.565-12.532,0.255
			c-3.671,2.823-5.075,7.705-3.466,12.046c0.14,0.378,12.407,33.947,10.258,64.734c-3.618-1.122-7.825-2.455-12.246-3.919
			c-8.402-2.78-15.717-5.422-21.656-7.807c14.664-17.758,16.518-35.746,16.603-36.663c0.537-5.809-3.738-10.953-9.547-11.49
			c-5.816-0.531-10.953,3.737-11.491,9.547c-0.017,0.185-2.211,18.86-20.376,33.583c-0.054,0.044-0.1,0.093-0.154,0.138
			c-0.128,0.108-0.259,0.212-0.382,0.328c-6.05,5.617-14.465,9.149-25.716,10.799c-5.075,0.736-10.65,1.104-17.46,1.143
			l-70.822-17.509v-40.016c11.023-5.956,30.624-19.085,30.624-37.163c0-15.249-8.413-21.695-15.47-24.418
			c-7.227-2.789-15.823-2.766-24.923-2.784h-1.59c-9.084,0.006-17.697-0.004-24.923,2.784c-7.058,2.723-15.47,9.17-15.47,24.418
			c0,18.078,19.601,31.207,30.624,37.163v40.016l-70.822,17.509c-6.809-0.039-12.385-0.406-17.451-1.142
			c-2.114-0.31-4.148-0.689-6.043-1.127c-8.296-1.92-14.735-5.086-19.689-9.678c-0.125-0.116-0.257-0.221-0.386-0.33
			c-0.05-0.042-0.094-0.088-0.145-0.13c-18.128-14.693-20.3-32.898-20.376-33.583c-0.537-5.808-5.678-10.068-11.49-9.547
			c-5.81,0.537-10.084,5.681-9.547,11.49c0.085,0.917,1.938,18.907,16.605,36.665c-10.464,4.193-23.692,8.562-33.899,11.73
			c-2.125-30.713,10.116-64.37,10.253-64.742c1.609-4.341,0.204-9.223-3.466-12.046c-3.67-2.822-8.75-2.926-12.532-0.255
			l-14.426,10.184c2.337-10.619,6.113-25.732,12.138-45.776c0.42-1.399,0.529-2.85,0.364-4.267h30.549
			c5.834,0,10.564-4.73,10.564-10.564c0-5.833-4.729-10.564-10.564-10.564H35.734l13.32-18.739h56.582
			c5.834,0,10.564-4.73,10.564-10.564s-4.729-10.564-10.564-10.564H64.07l13.32-18.74h38.81c5.834,0,10.564-4.73,10.564-10.564
			s-4.729-10.564-10.564-10.564H92.407l15.543-21.868c0.49-0.617,0.914-1.292,1.26-2.018c0.834-1.747,1.699-3.428,2.583-5.023
			c15.11-27.436,45.166-50.574,82.466-63.483c16.535-5.733,34.031-9.217,51.175-10.245v21.751h-27.497
			c-5.834,0-10.564,4.73-10.564,10.564s4.729,10.564,10.564,10.564h27.497v18.043h-13.067c-5.834,0-10.564,4.73-10.564,10.564
			s4.729,10.564,10.564,10.564h13.067v15.708c0,5.833,4.729,10.564,10.564,10.564c5.833,0,10.564-4.73,10.564-10.564v-15.708h13.057
			c5.833,0,10.564-4.73,10.564-10.564s-4.73-10.564-10.564-10.564h-13.057v-18.043h27.487c5.833,0,10.564-4.73,10.564-10.564
			s-4.73-10.564-10.564-10.564h-27.487V86.723c17.145,1.028,34.64,4.513,51.18,10.247c37.303,12.91,67.358,36.051,82.48,63.527
			c0.885,1.595,1.748,3.271,2.566,4.981c0.342,0.716,0.762,1.384,1.243,1.993l15.559,21.89h-23.792
			c-5.833,0-10.564,4.73-10.564,10.564s4.73,10.564,10.564,10.564h38.809l13.32,18.74h-41.565c-5.833,0-10.564,4.73-10.564,10.564
			s4.73,10.564,10.564,10.564h56.582l13.32,18.739H416.927z"/>
	</g>
</g>
<g>
	<g>
		<path d="M324.294,204.179c-22.502,0-40.809,18.306-40.809,40.807c0,5.833,4.73,10.564,10.564,10.564
			c5.833,0,10.564-4.73,10.564-10.564c0-10.851,8.829-19.68,19.681-19.68c10.846,0,19.669,8.828,19.669,19.68
			c0,5.833,4.73,10.564,10.564,10.564s10.564-4.73,10.564-10.564C365.09,222.485,346.789,204.179,324.294,204.179z"/>
	</g>
</g>
<g>
	<g>
		<path d="M345.125,318.89h-3.602c-5.833,0-10.564,4.73-10.564,10.564c0,5.833,4.73,10.564,10.564,10.564h3.602
			c5.833,0,10.564-4.73,10.564-10.564C355.689,323.621,350.96,318.89,345.125,318.89z"/>
	</g>
</g>
<g>
	<g>
		<path d="M321.241,353h-3.613c-5.833,0-10.564,4.73-10.564,10.564c0,5.833,4.73,10.564,10.564,10.564h3.613
			c5.833,0,10.564-4.73,10.564-10.564C331.804,357.731,327.074,353,321.241,353z"/>
	</g>
</g>
<g>
	<g>
		<path d="M369.02,353h-3.613c-5.833,0-10.564,4.73-10.564,10.564c0,5.833,4.73,10.564,10.564,10.564h3.613
			c5.833,0,10.564-4.73,10.564-10.564C379.584,357.731,374.855,353,369.02,353z"/>
	</g>
</g>
<g>
	<g>
		<path d="M187.705,204.179c-22.495,0-40.797,18.306-40.797,40.807c0,5.833,4.729,10.564,10.564,10.564s10.564-4.73,10.564-10.564
			c0-10.851,8.824-19.68,19.67-19.68c10.851,0,19.68,8.828,19.68,19.68c0,5.833,4.729,10.564,10.564,10.564
			c5.834,0,10.564-4.73,10.564-10.564C228.513,222.485,210.207,204.179,187.705,204.179z"/>
	</g>
</g>
<g>
	<g>
		<path d="M170.476,318.89h-3.602c-5.834,0-10.564,4.73-10.564,10.564c0,5.833,4.729,10.564,10.564,10.564h3.602
			c5.834,0,10.564-4.73,10.564-10.564C181.04,323.621,176.31,318.89,170.476,318.89z"/>
	</g>
</g>
<g>
	<g>
		<path d="M194.371,353h-3.613c-5.834,0-10.564,4.73-10.564,10.564c0,5.833,4.729,10.564,10.564,10.564h3.613
			c5.834,0,10.564-4.73,10.564-10.564C204.935,357.731,200.205,353,194.371,353z"/>
	</g>
</g>
<g>
	<g>
		<path d="M146.592,353h-3.613c-5.834,0-10.564,4.73-10.564,10.564c0,5.833,4.729,10.564,10.564,10.564h3.613
			c5.834,0,10.564-4.73,10.564-10.564C157.155,357.731,152.426,353,146.592,353z"/>
	</g>
</g>
<g>
	<g>
		<path d="M256.01,203.01c-5.834,0-10.564,4.73-10.564,10.564v4.402c0,5.833,4.729,10.564,10.564,10.564
			c5.833,0,10.564-4.73,10.564-10.564v-4.402C266.574,207.739,261.843,203.01,256.01,203.01z"/>
	</g>
</g>
</svg>